<mxfile host="65bd71144e">
    <diagram id="EsWSgBRg6HmPYJxvZoKw" name="第 1 页">
        <mxGraphModel dx="812" dy="419" grid="1" gridSize="10" guides="1" tooltips="1" connect="1" arrows="1" fold="1" page="1" pageScale="1" pageWidth="827" pageHeight="1169" math="0" shadow="0">
            <root>
                <mxCell id="0"/>
                <mxCell id="1" parent="0"/>
                <mxCell id="2" value="*gin.Engine&lt;div&gt;Server&lt;/div&gt;" style="rounded=0;whiteSpace=wrap;html=1;" vertex="1" parent="1">
                    <mxGeometry x="120" y="140" width="210" height="60" as="geometry"/>
                </mxCell>
                <mxCell id="3" value="Gin" style="text;html=1;align=center;verticalAlign=middle;whiteSpace=wrap;rounded=0;" vertex="1" parent="1">
                    <mxGeometry x="40" y="90" width="60" height="30" as="geometry"/>
                </mxCell>
                <mxCell id="4" value="GoRestful" style="text;html=1;align=center;verticalAlign=middle;whiteSpace=wrap;rounded=0;" vertex="1" parent="1">
                    <mxGeometry x="650" y="100" width="60" height="30" as="geometry"/>
                </mxCell>
                <mxCell id="5" value="&lt;div&gt;&lt;font color=&quot;#000000&quot;&gt;restful.DefaultContainer&lt;/font&gt;&lt;/div&gt;&lt;div&gt;Server&lt;/div&gt;" style="rounded=0;whiteSpace=wrap;html=1;" vertex="1" parent="1">
                    <mxGeometry x="414" y="140" width="210" height="60" as="geometry"/>
                </mxCell>
                <mxCell id="6" value="" style="rounded=0;whiteSpace=wrap;html=1;" vertex="1" parent="1">
                    <mxGeometry x="120" y="230" width="210" height="100" as="geometry"/>
                </mxCell>
                <mxCell id="7" value="Group" style="text;html=1;align=center;verticalAlign=middle;whiteSpace=wrap;rounded=0;" vertex="1" parent="1">
                    <mxGeometry x="50" y="230" width="60" height="30" as="geometry"/>
                </mxCell>
                <mxCell id="8" value="group&lt;div&gt;/books&lt;/div&gt;" style="rounded=0;whiteSpace=wrap;html=1;" vertex="1" parent="1">
                    <mxGeometry x="140" y="250" width="80" height="60" as="geometry"/>
                </mxCell>
                <mxCell id="9" value="group&lt;div&gt;/comments&lt;/div&gt;" style="rounded=0;whiteSpace=wrap;html=1;" vertex="1" parent="1">
                    <mxGeometry x="240" y="250" width="80" height="60" as="geometry"/>
                </mxCell>
                <mxCell id="10" value="" style="rounded=0;whiteSpace=wrap;html=1;" vertex="1" parent="1">
                    <mxGeometry x="414" y="230" width="210" height="100" as="geometry"/>
                </mxCell>
                <mxCell id="11" value="WebService" style="text;html=1;align=center;verticalAlign=middle;whiteSpace=wrap;rounded=0;" vertex="1" parent="1">
                    <mxGeometry x="650" y="230" width="60" height="30" as="geometry"/>
                </mxCell>
                <mxCell id="12" value="ws&lt;div&gt;/books&lt;/div&gt;" style="rounded=0;whiteSpace=wrap;html=1;" vertex="1" parent="1">
                    <mxGeometry x="440" y="250" width="80" height="60" as="geometry"/>
                </mxCell>
                <mxCell id="13" value="ws&lt;div&gt;/comments&lt;/div&gt;" style="rounded=0;whiteSpace=wrap;html=1;" vertex="1" parent="1">
                    <mxGeometry x="530" y="250" width="80" height="60" as="geometry"/>
                </mxCell>
                <mxCell id="14" value="restful.DefaultContainer.Add(u.WebService())" style="text;whiteSpace=wrap;" vertex="1" parent="1">
                    <mxGeometry x="557" y="50" width="270" height="40" as="geometry"/>
                </mxCell>
                <mxCell id="15" value="root.Group(&quot;&quot;)" style="text;whiteSpace=wrap;" vertex="1" parent="1">
                    <mxGeometry x="100" y="50" width="270" height="40" as="geometry"/>
                </mxCell>
                <mxCell id="16" value="" style="rounded=0;whiteSpace=wrap;html=1;" vertex="1" parent="1">
                    <mxGeometry x="120" y="360" width="210" height="100" as="geometry"/>
                </mxCell>
                <mxCell id="17" value="Route" style="text;html=1;align=center;verticalAlign=middle;whiteSpace=wrap;rounded=0;" vertex="1" parent="1">
                    <mxGeometry x="50" y="360" width="60" height="30" as="geometry"/>
                </mxCell>
                <mxCell id="18" value="route&lt;div&gt;get(&#39;/&#39;)&lt;/div&gt;" style="rounded=0;whiteSpace=wrap;html=1;" vertex="1" parent="1">
                    <mxGeometry x="150" y="380" width="70" height="40" as="geometry"/>
                </mxCell>
                <mxCell id="19" value="route&lt;div&gt;get(&#39;/&#39;)&lt;/div&gt;" style="rounded=0;whiteSpace=wrap;html=1;" vertex="1" parent="1">
                    <mxGeometry x="245" y="380" width="70" height="40" as="geometry"/>
                </mxCell>
                <mxCell id="20" value="" style="rounded=0;whiteSpace=wrap;html=1;" vertex="1" parent="1">
                    <mxGeometry x="414" y="360" width="210" height="100" as="geometry"/>
                </mxCell>
                <mxCell id="21" value="Route" style="text;html=1;align=center;verticalAlign=middle;whiteSpace=wrap;rounded=0;" vertex="1" parent="1">
                    <mxGeometry x="660" y="360" width="60" height="30" as="geometry"/>
                </mxCell>
                <mxCell id="22" value="ws.GET(&quot;/&quot;).To(u.findAllUsers)" style="text;whiteSpace=wrap;" vertex="1" parent="1">
                    <mxGeometry x="627" y="330" width="200" height="40" as="geometry"/>
                </mxCell>
                <mxCell id="23" value="route&lt;div&gt;ws.GET(&#39;/&#39;)&lt;/div&gt;" style="rounded=0;whiteSpace=wrap;html=1;" vertex="1" parent="1">
                    <mxGeometry x="430" y="380" width="70" height="40" as="geometry"/>
                </mxCell>
                <mxCell id="24" value="route&lt;div&gt;ws.POST(&#39;/&#39;)&lt;/div&gt;" style="rounded=0;whiteSpace=wrap;html=1;" vertex="1" parent="1">
                    <mxGeometry x="540" y="380" width="70" height="40" as="geometry"/>
                </mxCell>
                <mxCell id="25" value="findAllUsers(request *restful.Request, response *restful.Response)" style="text;whiteSpace=wrap;" vertex="1" parent="1">
                    <mxGeometry x="400" y="20" width="390" height="40" as="geometry"/>
                </mxCell>
                <mxCell id="26" value="&lt;div style=&quot;color: #f8f8f2;background-color: #272822;font-family: &#39;Cascadia Code NF&#39;, Menlo, Monaco, &#39;Courier New&#39;, monospace, Menlo, Monaco, &#39;Courier New&#39;, monospace;font-weight: normal;font-size: 12px;line-height: 18px;white-space: pre;&quot;&gt;&lt;div&gt;&lt;span style=&quot;color: #a6e22e;&quot;&gt;queryBook&lt;/span&gt;&lt;span style=&quot;color: #f8f8f2;&quot;&gt;(&lt;/span&gt;&lt;span style=&quot;color: #fd971f;font-style: italic;&quot;&gt;ctx&lt;/span&gt;&lt;span style=&quot;color: #f8f8f2;&quot;&gt; &lt;/span&gt;&lt;span style=&quot;color: #f92672;&quot;&gt;*&lt;/span&gt;&lt;span style=&quot;color: #a6e22e;text-decoration: underline;&quot;&gt;gin&lt;/span&gt;&lt;span style=&quot;color: #f8f8f2;&quot;&gt;.&lt;/span&gt;&lt;span style=&quot;color: #a6e22e;text-decoration: underline;&quot;&gt;Context&lt;/span&gt;&lt;span style=&quot;color: #f8f8f2;&quot;&gt;)&lt;/span&gt;&lt;/div&gt;&lt;/div&gt;" style="text;whiteSpace=wrap;html=1;" vertex="1" parent="1">
                    <mxGeometry x="100" y="20" width="220" height="40" as="geometry"/>
                </mxCell>
            </root>
        </mxGraphModel>
    </diagram>
</mxfile>